<?xml version="1.0" encoding="UTF-8"?>
<svg width="127px" height="108px" viewBox="0 0 127 108" version="1.1" xmlns="http://www.w3.org/2000/svg" xmlns:xlink="http://www.w3.org/1999/xlink">
    <title>压缩包</title>
    <defs>
        <filter id="filter-1">
            <feColorMatrix in="SourceGraphic" type="matrix" values="0 0 0 0 0.223529 0 0 0 0 0.756863 0 0 0 0 0.482353 0 0 0 1.000000 0"></feColorMatrix>
        </filter>
        <filter id="filter-2">
            <feColorMatrix in="SourceGraphic" type="matrix" values="0 0 0 0 1.000000 0 0 0 0 1.000000 0 0 0 0 1.000000 0 0 0 1.000000 0"></feColorMatrix>
        </filter>
        <filter id="filter-3">
            <feColorMatrix in="SourceGraphic" type="matrix" values="0 0 0 0 1.000000 0 0 0 0 1.000000 0 0 0 0 1.000000 0 0 0 1.000000 0"></feColorMatrix>
        </filter>
    </defs>
    <g id="页面-1" stroke="none" stroke-width="1" fill="none" fill-rule="evenodd">
        <g id="压缩包" transform="translate(-7.000000, -18.000000)">
            <g id="编组-4" transform="translate(7.000000, 18.000000)">
                <g id="文件夹">
                    <path d="M10,0 L44.2409982,0 C48.0559311,2.85192188e-15 51.7722142,1.21207283 54.8535554,3.4613058 L65.2274401,11.0337496 C68.3087813,13.2829826 72.0250644,14.4950554 75.8399973,14.4950554 L117,14.4950554 C122.522847,14.4950554 127,18.9722079 127,24.4950554 L127,92 C127,97.5228475 122.522847,102 117,102 L10,102 C4.4771525,102 -6.42907361e-15,97.5228475 0,92 L0,10 C-6.76353751e-16,4.4771525 4.4771525,1.01453063e-15 10,0 Z" id="矩形" fill="#FF9F29"></path>
                    <rect id="矩形" fill="#FFFFFF" x="14" y="21" width="100" height="13" rx="1.805"></rect>
                    <path d="M0,18 L117,18 C122.522847,18 127,22.4771525 127,28 L127,98 C127,103.522847 122.522847,108 117,108 L10,108 C4.4771525,108 -8.20543045e-15,103.522847 0,98 L0,18 L0,18 Z" id="矩形" fill="#FFD12A"></path>
                </g>
                <g filter="url(#filter-1)" id="背景色">
                    <g transform="translate(6.000000, 74.000000)">
                        <rect id="矩形" fill="#D8D8D8" x="0" y="0" width="50" height="30" rx="8"></rect>
                    </g>
                </g>
                <g filter="url(#filter-2)" font-family="Gilroy-Bold, Gilroy" font-size="20" font-weight="bold" id="文字" letter-spacing="0.38" line-spacing="24">
                    <g transform="translate(11.000000, 77.000000)">
                        <text id="RAR" fill-rule="nonzero" fill="#000000">
                            <tspan x="1.72" y="19">TAR</tspan>
                        </text>
                    </g>
                </g>
                <g filter="url(#filter-3)" id="编组-2">
                    <g transform="translate(90.000000, 20.000000)">
                        <rect id="矩形" fill="#454550" x="0" y="0" width="8" height="4" rx="1"></rect>
                        <rect id="矩形" fill="#454550" transform="translate(12.000000, 6.000000) rotate(-180.000000) translate(-12.000000, -6.000000) " x="8" y="4" width="8" height="4" rx="1"></rect>
                        <rect id="矩形" fill="#454550" x="0" y="8" width="8" height="4" rx="1"></rect>
                        <rect id="矩形" fill="#454550" transform="translate(12.000000, 14.000000) rotate(-180.000000) translate(-12.000000, -14.000000) " x="8" y="12" width="8" height="4" rx="1"></rect>
                        <rect id="矩形" fill="#454550" x="0" y="16" width="8" height="4" rx="1"></rect>
                        <rect id="矩形" fill="#454550" transform="translate(12.000000, 22.000000) rotate(-180.000000) translate(-12.000000, -22.000000) " x="8" y="20" width="8" height="4" rx="1"></rect>
                        <rect id="矩形" fill="#454550" x="0" y="24" width="8" height="4" rx="1"></rect>
                        <rect id="矩形" fill="#454550" transform="translate(12.000000, 30.000000) rotate(-180.000000) translate(-12.000000, -30.000000) " x="8" y="28" width="8" height="4" rx="1"></rect>
                        <rect id="矩形" fill="#454550" x="0" y="32" width="8" height="4" rx="1"></rect>
                        <rect id="矩形" fill="#454550" transform="translate(12.000000, 38.000000) rotate(-180.000000) translate(-12.000000, -38.000000) " x="8" y="36" width="8" height="4" rx="1"></rect>
                        <rect id="矩形" fill="#454550" x="0" y="40" width="8" height="4" rx="1"></rect>
                    </g>
                </g>
                <path d="M104,66 C105.104569,66 106,66.8954305 106,68 L106,80 C106,81.1045695 105.104569,82 104,82 L92,82 C90.8954305,82 90,81.1045695 90,80 L90,68 C90,66.8954305 90.8954305,66 92,66 L104,66 Z M103,68 L93,68 C92.4477153,68 92,68.4477153 92,69 L92,69 L92,73 C92,73.5522847 92.4477153,74 93,74 L93,74 L103,74 C103.552285,74 104,73.5522847 104,73 L104,73 L104,69 C104,68.4477153 103.552285,68 103,68 L103,68 Z" id="形状结合" fill="#FFFFFF"></path>
            </g>
        </g>
    </g>
</svg>