<?xml version="1.0" encoding="UTF-8"?>
<svg width="140px" height="140px" viewBox="0 0 140 140" version="1.1" xmlns="http://www.w3.org/2000/svg" xmlns:xlink="http://www.w3.org/1999/xlink">
    <title>文件夹</title>
    <g id="页面-1" stroke="none" stroke-width="1" fill="none" fill-rule="evenodd">
        <g id="画板" transform="translate(-1412.000000, -378.000000)">
            <g id="矩形" transform="translate(1412.000000, 378.000000)">
                <path d="M22.025,22 L53.095228,22 C56.5278236,22 59.8722019,23.0873167 62.648507,25.1059405 L72.0862527,31.9680311 C74.8625578,33.9866548 78.2069361,35.0739715 81.6395317,35.0739715 L118.975,35.0739715 C123.95937,35.0739715 128,39.1146017 128,44.0989715 L128,104.975 C128,109.95937 123.95937,114 118.975,114 L22.025,114 C17.0406301,114 13,109.95937 13,104.975 L13,31.025 C13,26.0406301 17.0406301,22 22.025,22 Z" fill="#FF9F29"></path>
                <rect fill="#FFFFFF" x="21" y="39" width="100" height="13" rx="1.805"></rect>
                <path d="M13,43 L118.975,43 C123.95937,43 128,47.0406301 128,52.025 L128,109.975 C128,114.95937 123.95937,119 118.975,119 L22.025,119 C17.0406301,119 13,114.95937 13,109.975 L13,43 L13,43 Z" fill="#FFD12A"></path>
                <rect x="0" y="0" width="140" height="140"></rect>
            </g>
        </g>
    </g>
</svg>