<?xml version="1.0" encoding="UTF-8"?>
<svg width="140px" height="140px" viewBox="0 0 140 140" version="1.1" xmlns="http://www.w3.org/2000/svg" xmlns:xlink="http://www.w3.org/1999/xlink">
    <title>压缩包-rar</title>
    <defs>
        <filter id="filter-1">
            <feColorMatrix in="SourceGraphic" type="matrix" values="0 0 0 0 0.223529 0 0 0 0 0.756863 0 0 0 0 0.482353 0 0 0 1.000000 0"></feColorMatrix>
        </filter>
        <filter id="filter-2">
            <feColorMatrix in="SourceGraphic" type="matrix" values="0 0 0 0 1.000000 0 0 0 0 1.000000 0 0 0 0 1.000000 0 0 0 1.000000 0"></feColorMatrix>
        </filter>
        <filter id="filter-3">
            <feColorMatrix in="SourceGraphic" type="matrix" values="0 0 0 0 1.000000 0 0 0 0 1.000000 0 0 0 0 1.000000 0 0 0 1.000000 0"></feColorMatrix>
        </filter>
    </defs>
    <g id="页面-1" stroke="none" stroke-width="1" fill="none" fill-rule="evenodd">
        <g id="画板" transform="translate(-377.000000, -378.000000)">
            <g id="压缩包-rar" transform="translate(377.000000, 378.000000)">
                <g id="编组-4" transform="translate(7.000000, 18.000000)">
                    <g id="文件夹">
                        <path d="M10,0 L44.2409982,0 C48.0559311,2.85192188e-15 51.7722142,1.21207283 54.8535554,3.4613058 L65.2274401,11.0337496 C68.3087813,13.2829826 72.0250644,14.4950554 75.8399973,14.4950554 L117,14.4950554 C122.522847,14.4950554 127,18.9722079 127,24.4950554 L127,92 C127,97.5228475 122.522847,102 117,102 L10,102 C4.4771525,102 -6.42907361e-15,97.5228475 0,92 L0,10 C-6.76353751e-16,4.4771525 4.4771525,1.01453063e-15 10,0 Z" id="矩形" fill="#FF9F29"></path>
                        <rect id="矩形" fill="#FFFFFF" x="14" y="21" width="100" height="13" rx="1.805"></rect>
                        <path d="M0,18 L117,18 C122.522847,18 127,22.4771525 127,28 L127,98 C127,103.522847 122.522847,108 117,108 L10,108 C4.4771525,108 -8.20543045e-15,103.522847 0,98 L0,18 L0,18 Z" id="矩形" fill="#FFD12A"></path>
                    </g>
                    <g filter="url(#filter-1)" id="背景色">
                        <g transform="translate(6.000000, 74.000000)">
                            <rect id="矩形" fill="#39C17B" x="0" y="0" width="50" height="30" rx="8"></rect>
                        </g>
                    </g>
                    <g filter="url(#filter-2)" id="文字">
                        <g transform="translate(11.000000, 77.000000)">
                            <path d="M4.53,19 L4.53,14.14 L6.63,14.14 L9.45,19 L12.43,19 L9.33,13.72 C10.93,12.98 12.03,11.4 12.03,9.64 C12.03,7.08 9.95,5 7.37,5 L1.77,5 L1.77,19 L4.53,19 Z M7.37,11.72 L4.53,11.72 L4.53,7.58 L7.37,7.58 C8.41,7.58 9.27,8.48 9.27,9.64 C9.27,10.8 8.41,11.72 7.37,11.72 Z M16.17,19 L17.01,16.48 L22.59,16.48 L23.43,19 L26.43,19 L21.51,5 L18.09,5 L13.19,19 L16.17,19 Z M21.73,13.9 L17.89,13.9 L19.81,8.18 L21.73,13.9 Z M30.93,19 L30.93,14.14 L33.03,14.14 L35.85,19 L38.83,19 L35.73,13.72 C37.33,12.98 38.43,11.4 38.43,9.64 C38.43,7.08 36.35,5 33.77,5 L28.17,5 L28.17,19 L30.93,19 Z M33.77,11.72 L30.93,11.72 L30.93,7.58 L33.77,7.58 C34.81,7.58 35.67,8.48 35.67,9.64 C35.67,10.8 34.81,11.72 33.77,11.72 Z" id="RAR" fill="#FFFFFF" fill-rule="nonzero"></path>
                        </g>
                    </g>
                    <g filter="url(#filter-3)" id="编组-2">
                        <g transform="translate(90.000000, 20.000000)">
                            <rect id="矩形" fill="#FFFFFF" x="0" y="0" width="8" height="4" rx="1"></rect>
                            <rect id="矩形" fill="#FFFFFF" transform="translate(12.000000, 6.000000) rotate(-180.000000) translate(-12.000000, -6.000000) " x="8" y="4" width="8" height="4" rx="1"></rect>
                            <rect id="矩形" fill="#FFFFFF" x="0" y="8" width="8" height="4" rx="1"></rect>
                            <rect id="矩形" fill="#FFFFFF" transform="translate(12.000000, 14.000000) rotate(-180.000000) translate(-12.000000, -14.000000) " x="8" y="12" width="8" height="4" rx="1"></rect>
                            <rect id="矩形" fill="#FFFFFF" x="0" y="16" width="8" height="4" rx="1"></rect>
                            <rect id="矩形" fill="#FFFFFF" transform="translate(12.000000, 22.000000) rotate(-180.000000) translate(-12.000000, -22.000000) " x="8" y="20" width="8" height="4" rx="1"></rect>
                            <rect id="矩形" fill="#FFFFFF" x="0" y="24" width="8" height="4" rx="1"></rect>
                            <rect id="矩形" fill="#FFFFFF" transform="translate(12.000000, 30.000000) rotate(-180.000000) translate(-12.000000, -30.000000) " x="8" y="28" width="8" height="4" rx="1"></rect>
                            <rect id="矩形" fill="#FFFFFF" x="0" y="32" width="8" height="4" rx="1"></rect>
                            <rect id="矩形" fill="#FFFFFF" transform="translate(12.000000, 38.000000) rotate(-180.000000) translate(-12.000000, -38.000000) " x="8" y="36" width="8" height="4" rx="1"></rect>
                            <rect id="矩形" fill="#FFFFFF" x="0" y="40" width="8" height="4" rx="1"></rect>
                        </g>
                    </g>
                    <path d="M104,66 C105.104569,66 106,66.8954305 106,68 L106,80 C106,81.1045695 105.104569,82 104,82 L92,82 C90.8954305,82 90,81.1045695 90,80 L90,68 C90,66.8954305 90.8954305,66 92,66 L104,66 Z M103,68 L93,68 C92.4477153,68 92,68.4477153 92,69 L92,69 L92,73 C92,73.5522847 92.4477153,74 93,74 L93,74 L103,74 C103.552285,74 104,73.5522847 104,73 L104,73 L104,69 C104,68.4477153 103.552285,68 103,68 L103,68 Z" id="形状结合" fill="#FFFFFF"></path>
                </g>
            </g>
        </g>
    </g>
</svg>