<?xml version="1.0" encoding="UTF-8"?>
<svg width="140px" height="140px" viewBox="0 0 140 140" version="1.1" xmlns="http://www.w3.org/2000/svg" xmlns:xlink="http://www.w3.org/1999/xlink">
    <title>压缩包-tar</title>
    <defs>
        <filter id="filter-1">
            <feColorMatrix in="SourceGraphic" type="matrix" values="0 0 0 0 0.223529 0 0 0 0 0.756863 0 0 0 0 0.482353 0 0 0 1.000000 0"></feColorMatrix>
        </filter>
        <filter id="filter-2">
            <feColorMatrix in="SourceGraphic" type="matrix" values="0 0 0 0 1.000000 0 0 0 0 1.000000 0 0 0 0 1.000000 0 0 0 1.000000 0"></feColorMatrix>
        </filter>
        <filter id="filter-3">
            <feColorMatrix in="SourceGraphic" type="matrix" values="0 0 0 0 1.000000 0 0 0 0 1.000000 0 0 0 0 1.000000 0 0 0 1.000000 0"></feColorMatrix>
        </filter>
    </defs>
    <g id="页面-1" stroke="none" stroke-width="1" fill="none" fill-rule="evenodd">
        <g id="画板" transform="translate(-998.000000, -378.000000)">
            <g id="压缩包-tar" transform="translate(998.000000, 378.000000)">
                <g id="编组-4" transform="translate(7.000000, 18.000000)">
                    <g id="文件夹">
                        <path d="M10,0 L44.2409982,0 C48.0559311,2.85192188e-15 51.7722142,1.21207283 54.8535554,3.4613058 L65.2274401,11.0337496 C68.3087813,13.2829826 72.0250644,14.4950554 75.8399973,14.4950554 L117,14.4950554 C122.522847,14.4950554 127,18.9722079 127,24.4950554 L127,92 C127,97.5228475 122.522847,102 117,102 L10,102 C4.4771525,102 -6.42907361e-15,97.5228475 0,92 L0,10 C-6.76353751e-16,4.4771525 4.4771525,1.01453063e-15 10,0 Z" id="矩形" fill="#FF9F29"></path>
                        <rect id="矩形" fill="#FFFFFF" x="14" y="21" width="100" height="13" rx="1.805"></rect>
                        <path d="M0,18 L117,18 C122.522847,18 127,22.4771525 127,28 L127,98 C127,103.522847 122.522847,108 117,108 L10,108 C4.4771525,108 -8.20543045e-15,103.522847 0,98 L0,18 L0,18 Z" id="矩形" fill="#FFD12A"></path>
                    </g>
                    <g filter="url(#filter-1)" id="背景色">
                        <g transform="translate(6.000000, 74.000000)">
                            <rect id="矩形" fill="#39C17B" x="0" y="0" width="50" height="30" rx="8"></rect>
                        </g>
                    </g>
                    <g filter="url(#filter-2)" id="文字">
                        <g transform="translate(11.000000, 77.000000)">
                            <path d="M8.5,19 L8.5,7.64 L12.28,7.64 L12.28,5 L1.98,5 L1.98,7.64 L5.74,7.64 L5.74,19 L8.5,19 Z M14.92,19 L15.76,16.48 L21.34,16.48 L22.18,19 L25.18,19 L20.26,5 L16.84,5 L11.94,19 L14.92,19 Z M20.48,13.9 L16.64,13.9 L18.56,8.18 L20.48,13.9 Z M29.68,19 L29.68,14.14 L31.78,14.14 L34.6,19 L37.58,19 L34.48,13.72 C36.08,12.98 37.18,11.4 37.18,9.64 C37.18,7.08 35.1,5 32.52,5 L26.92,5 L26.92,19 L29.68,19 Z M32.52,11.72 L29.68,11.72 L29.68,7.58 L32.52,7.58 C33.56,7.58 34.42,8.48 34.42,9.64 C34.42,10.8 33.56,11.72 32.52,11.72 Z" id="TAR" fill="#FFFFFF" fill-rule="nonzero"></path>
                        </g>
                    </g>
                    <g filter="url(#filter-3)" id="编组-2">
                        <g transform="translate(90.000000, 20.000000)">
                            <rect id="矩形" fill="#FFFFFF" x="0" y="0" width="8" height="4" rx="1"></rect>
                            <rect id="矩形" fill="#FFFFFF" transform="translate(12.000000, 6.000000) rotate(-180.000000) translate(-12.000000, -6.000000) " x="8" y="4" width="8" height="4" rx="1"></rect>
                            <rect id="矩形" fill="#FFFFFF" x="0" y="8" width="8" height="4" rx="1"></rect>
                            <rect id="矩形" fill="#FFFFFF" transform="translate(12.000000, 14.000000) rotate(-180.000000) translate(-12.000000, -14.000000) " x="8" y="12" width="8" height="4" rx="1"></rect>
                            <rect id="矩形" fill="#FFFFFF" x="0" y="16" width="8" height="4" rx="1"></rect>
                            <rect id="矩形" fill="#FFFFFF" transform="translate(12.000000, 22.000000) rotate(-180.000000) translate(-12.000000, -22.000000) " x="8" y="20" width="8" height="4" rx="1"></rect>
                            <rect id="矩形" fill="#FFFFFF" x="0" y="24" width="8" height="4" rx="1"></rect>
                            <rect id="矩形" fill="#FFFFFF" transform="translate(12.000000, 30.000000) rotate(-180.000000) translate(-12.000000, -30.000000) " x="8" y="28" width="8" height="4" rx="1"></rect>
                            <rect id="矩形" fill="#FFFFFF" x="0" y="32" width="8" height="4" rx="1"></rect>
                            <rect id="矩形" fill="#FFFFFF" transform="translate(12.000000, 38.000000) rotate(-180.000000) translate(-12.000000, -38.000000) " x="8" y="36" width="8" height="4" rx="1"></rect>
                            <rect id="矩形" fill="#FFFFFF" x="0" y="40" width="8" height="4" rx="1"></rect>
                        </g>
                    </g>
                    <path d="M104,66 C105.104569,66 106,66.8954305 106,68 L106,80 C106,81.1045695 105.104569,82 104,82 L92,82 C90.8954305,82 90,81.1045695 90,80 L90,68 C90,66.8954305 90.8954305,66 92,66 L104,66 Z M103,68 L93,68 C92.4477153,68 92,68.4477153 92,69 L92,69 L92,73 C92,73.5522847 92.4477153,74 93,74 L93,74 L103,74 C103.552285,74 104,73.5522847 104,73 L104,73 L104,69 C104,68.4477153 103.552285,68 103,68 L103,68 Z" id="形状结合" fill="#FFFFFF"></path>
                </g>
            </g>
        </g>
    </g>
</svg>